<svg width="446" height="431" viewBox="0 0 446 431" fill="none" xmlns="http://www.w3.org/2000/svg">
<rect width="446" height="431" rx="126" fill="#001F44"/>
<path d="M297.261 209.803C302.297 209.803 306.475 205.722 306.475 200.686L306.475 140.279C306.475 135.243 302.297 131.163 297.261 131.163C292.226 131.163 288.048 135.243 288.048 140.279L288.048 200.686C288.048 205.722 292.226 209.803 297.261 209.803Z" fill="white"/>
<path d="M297.261 123.875C302.297 123.875 306.475 119.795 306.475 114.759L306.475 106.553C306.475 101.518 302.297 97.4369 297.261 97.4369C292.226 97.4369 288.048 101.518 288.048 106.553L288.048 114.759C288.048 119.795 292.226 123.875 297.261 123.875Z" fill="#3EA2D6"/>
<path d="M266.266 72.6567C261.23 72.6567 257.239 76.7373 257.239 81.7729V131.763C257.239 131.763 256.911 137.253 250.756 137.253C244.602 137.253 244.259 131.763 244.259 131.763V121.139C244.259 116.104 240.156 112.023 235.12 112.023C230.085 112.023 225.982 116.104 225.982 121.139V158.992C225.982 158.992 226.571 164.065 218.969 164.065C211.367 164.065 211.584 158.992 211.584 158.992V102.624C211.584 97.5882 207.443 93.5075 202.408 93.5075C197.372 93.5075 193.232 97.5882 193.232 102.624V158.992C193.232 158.992 193.971 164.214 186.891 164.214C179.811 164.214 180.401 158.992 180.401 158.992V141.073C180.401 136.037 176.41 131.957 171.374 131.957C166.339 131.957 162.347 136.037 162.347 141.073V188.138C162.347 193.174 166.339 197.254 171.374 197.254C176.41 197.254 180.401 193.174 180.401 188.138V177.343C180.401 177.343 180.02 172.569 186.742 172.569C193.463 172.569 193.232 177.343 193.232 177.343V214.323C193.232 219.358 197.372 223.439 202.408 223.439C207.443 223.439 211.584 219.358 211.584 214.323V177.351C211.584 177.351 211.144 171.838 218.865 171.838C226.586 171.838 225.982 177.351 225.982 177.351V197.262C225.982 202.297 230.085 206.378 235.12 206.378C240.156 206.378 244.259 202.297 244.259 197.262V149.749C244.259 149.749 243.93 144.81 250.585 144.81C257.239 144.81 257.239 149.749 257.239 149.749V224.61C257.239 229.646 261.23 233.726 266.266 233.726C271.301 233.726 275.292 229.646 275.292 224.61V81.7729C275.292 76.7373 271.301 72.6567 266.266 72.6567Z" fill="white"/>
<path d="M140.798 151.127C135.763 151.127 131.585 155.215 131.585 160.243V168.449C131.585 173.484 135.763 177.565 140.798 177.565C145.834 177.565 150.011 173.484 150.011 168.449V160.243C150.011 155.215 145.834 151.127 140.798 151.127Z" fill="#3EA2D6"/>
<path d="M149.071 345.851C155.147 345.851 159.164 343.132 161.975 339.442L158.41 337.548C156.502 340.316 153.038 342.258 149.071 342.258C141.891 342.258 136.318 336.771 136.318 329.099C136.318 321.379 141.891 315.941 149.071 315.941C153.038 315.941 156.502 317.932 158.41 320.651L161.925 318.757C159.264 315.116 155.147 312.348 149.071 312.348C139.582 312.348 132 319.146 132 329.099C132 339.053 139.582 345.851 149.071 345.851Z" fill="white"/>
<path d="M177.73 345.851C185.111 345.851 189.73 340.316 189.73 333.518C189.73 326.72 185.111 321.234 177.73 321.234C170.349 321.234 165.73 326.72 165.73 333.518C165.73 340.316 170.349 345.851 177.73 345.851ZM177.73 342.598C172.559 342.598 169.646 338.325 169.646 333.518C169.646 328.76 172.559 324.487 177.73 324.487C182.902 324.487 185.764 328.76 185.764 333.518C185.764 338.325 182.902 342.598 177.73 342.598Z" fill="white"/>
<path d="M212.238 345.268H216.004V328.808C216.004 323.71 213.342 321.234 208.271 321.234C204.656 321.234 201.342 323.273 199.635 325.215V321.816H195.869V345.268H199.635V328.128C201.041 326.235 203.853 324.487 206.815 324.487C210.079 324.487 212.238 325.798 212.238 329.925V345.268Z" fill="white"/>
<path d="M239.892 345.268H243.658V328.808C243.658 323.71 240.997 321.234 235.926 321.234C232.311 321.234 228.997 323.273 227.29 325.215V321.816H223.524V345.268H227.29V328.128C228.696 326.235 231.507 324.487 234.47 324.487C237.733 324.487 239.892 325.798 239.892 329.925V345.268Z" fill="white"/>
<path d="M249.773 333.518C249.773 340.85 254.944 345.851 262.124 345.851C266.091 345.851 269.355 344.588 271.765 342.258L269.957 339.879C268.049 341.772 265.237 342.84 262.476 342.84C257.254 342.84 254.041 339.15 253.739 334.732H273.372V333.809C273.372 326.769 269.053 321.234 261.723 321.234C254.794 321.234 249.773 326.72 249.773 333.518ZM261.673 324.244C267.196 324.244 269.606 328.565 269.656 332.061H253.739C253.94 328.468 256.501 324.244 261.673 324.244Z" fill="white"/>
<path d="M278.065 333.518C278.065 340.51 282.935 345.851 290.166 345.851C294.584 345.851 297.195 344.103 299.053 341.772L296.542 339.539C294.935 341.627 292.877 342.598 290.366 342.598C285.195 342.598 281.981 338.713 281.981 333.518C281.981 328.323 285.195 324.487 290.366 324.487C292.877 324.487 294.935 325.409 296.542 327.546L299.053 325.312C297.195 322.982 294.584 321.234 290.166 321.234C282.935 321.234 278.065 326.575 278.065 333.518Z" fill="white"/>
<path d="M310.456 345.851C312.665 345.851 314.021 345.22 314.975 344.346L313.87 341.627C313.368 342.161 312.364 342.598 311.31 342.598C309.653 342.598 308.85 341.335 308.85 339.587V325.021H313.77V321.816H308.85V315.407H305.084V321.816H301.067V325.021H305.084V340.364C305.084 343.86 306.891 345.851 310.456 345.851Z" fill="white"/>
<path d="M145.021 251.407L124.417 300.194H113.537L93 251.407H104.9L119.385 286.255L134.073 251.407H145.021Z" fill="#3EA2D6"/>
<path d="M162.933 300.751C159.08 300.751 155.612 299.938 152.529 298.312C149.492 296.639 147.112 294.339 145.389 291.412C143.666 288.485 142.805 285.163 142.805 281.446C142.805 277.728 143.666 274.406 145.389 271.479C147.112 268.552 149.492 266.275 152.529 264.649C155.612 262.976 159.08 262.14 162.933 262.14C166.787 262.14 170.232 262.976 173.27 264.649C176.307 266.275 178.687 268.552 180.41 271.479C182.133 274.406 182.994 277.728 182.994 281.446C182.994 285.163 182.133 288.485 180.41 291.412C178.687 294.339 176.307 296.639 173.27 298.312C170.232 299.938 166.787 300.751 162.933 300.751ZM162.933 291.83C165.653 291.83 167.875 290.901 169.598 289.042C171.366 287.137 172.25 284.605 172.25 281.446C172.25 278.286 171.366 275.777 169.598 273.918C167.875 272.013 165.653 271.061 162.933 271.061C160.213 271.061 157.969 272.013 156.201 273.918C154.433 275.777 153.549 278.286 153.549 281.446C153.549 284.605 154.433 287.137 156.201 289.042C157.969 290.901 160.213 291.83 162.933 291.83Z" fill="#3EA2D6"/>
<path d="M190.085 262.697H200.693V300.194H190.085V262.697ZM195.389 257.47C193.439 257.47 191.853 256.89 190.629 255.728C189.405 254.566 188.793 253.126 188.793 251.407C188.793 249.688 189.405 248.247 190.629 247.086C191.853 245.924 193.439 245.343 195.389 245.343C197.338 245.343 198.925 245.901 200.149 247.016C201.373 248.131 201.985 249.525 201.985 251.198C201.985 253.01 201.373 254.52 200.149 255.728C198.925 256.89 197.338 257.47 195.389 257.47Z" fill="#3EA2D6"/>
<path d="M228.219 300.751C224.32 300.751 220.807 299.938 217.679 298.312C214.596 296.639 212.17 294.339 210.402 291.412C208.68 288.485 207.818 285.163 207.818 281.446C207.818 277.728 208.68 274.406 210.402 271.479C212.17 268.552 214.596 266.275 217.679 264.649C220.807 262.976 224.32 262.14 228.219 262.14C232.072 262.14 235.427 262.976 238.283 264.649C241.184 266.275 243.293 268.622 244.607 271.688L236.379 276.218C234.475 272.78 231.732 271.061 228.151 271.061C225.385 271.061 223.096 271.99 221.283 273.849C219.469 275.707 218.563 278.24 218.563 281.446C218.563 284.652 219.469 287.184 221.283 289.042C223.096 290.901 225.385 291.83 228.151 291.83C231.778 291.83 234.52 290.111 236.379 286.673L244.607 291.273C243.293 294.246 241.184 296.57 238.283 298.242C235.427 299.915 232.072 300.751 228.219 300.751Z" fill="#3EA2D6"/>
<path d="M286.087 281.585C286.087 281.724 286.019 282.7 285.883 284.512H258.207C258.705 286.835 259.884 288.671 261.743 290.018C263.601 291.366 265.913 292.039 268.679 292.039C270.583 292.039 272.26 291.761 273.711 291.203C275.207 290.599 276.59 289.67 277.859 288.415L283.503 294.688C280.058 298.73 275.026 300.751 268.407 300.751C264.281 300.751 260.632 299.938 257.458 298.312C254.285 296.639 251.837 294.339 250.114 291.412C248.392 288.485 247.53 285.163 247.53 281.446C247.53 277.775 248.369 274.476 250.046 271.549C251.769 268.575 254.104 266.275 257.05 264.649C260.043 262.976 263.375 262.14 267.047 262.14C270.628 262.14 273.87 262.93 276.771 264.51C279.672 266.089 281.939 268.366 283.571 271.34C285.249 274.267 286.087 277.682 286.087 281.585ZM267.115 270.364C264.712 270.364 262.695 271.061 261.063 272.455C259.431 273.849 258.433 275.754 258.071 278.17H276.091C275.728 275.8 274.731 273.918 273.099 272.525C271.467 271.084 269.472 270.364 267.115 270.364Z" fill="#3EA2D6"/>
<path d="M325.537 288.59H300.24L295.004 300.787H288L309.557 252H316.289L337.913 300.787H330.773L325.537 288.59ZM323.157 283.015L312.889 259.109L302.62 283.015H323.157Z" fill="white"/>
<path d="M345.014 252H351.814V300.787H345.014V252Z" fill="white"/>
</svg>
